<?xml version="1.0" standalone="no"?>
<!DOCTYPE svg PUBLIC "-//W3C//DTD SVG 20010904//EN"
 "http://www.w3.org/TR/2001/REC-SVG-20010904/DTD/svg10.dtd">
<svg version="1.0" xmlns="http://www.w3.org/2000/svg"
 width="300.000000pt" height="300.000000pt" viewBox="0 0 300.000000 300.000000"
 preserveAspectRatio="xMidYMid meet">

<g transform="translate(0.000000,300.000000) scale(0.100000,-0.100000)"
fill="#373737" stroke="none">
<path d="M200 1560 l0 -320 320 0 320 0 0 320 0 320 -320 0 -320 0 0 -320z
m527 9 c2 -104 -1 -190 -7 -199 -7 -12 -14 -10 -40 15 -26 25 -30 36 -30 81 0
29 -4 55 -9 58 -4 3 -60 3 -124 -1 l-116 -6 -3 -80 c-2 -63 -7 -82 -20 -91
-13 -8 -23 -8 -35 0 -16 10 -18 33 -21 208 -1 114 1 196 7 196 5 0 23 -16 40
-35 24 -27 31 -45 31 -75 l0 -40 125 0 125 0 0 80 c0 65 3 81 18 89 12 7 23 6
37 -3 19 -13 20 -26 22 -197z"/>
<path d="M1742 1680 c-12 -5 -27 -21 -33 -34 -17 -35 7 -68 65 -90 49 -19 63
-49 26 -61 -24 -8 -60 11 -60 30 0 8 -9 15 -20 15 -28 0 -27 -44 2 -64 33 -23
103 -21 128 4 39 39 21 78 -50 109 -61 26 -66 54 -12 59 27 3 35 -1 39 -18 7
-27 37 -22 41 7 2 13 -4 26 -15 31 -30 16 -86 22 -111 12z"/>
<path d="M1010 1670 c0 -6 7 -13 15 -16 11 -5 15 -24 15 -80 0 -57 -4 -76 -15
-80 -8 -4 -15 -12 -15 -20 0 -10 14 -14 50 -14 36 0 50 4 50 14 0 8 -7 16 -15
20 -8 3 -15 17 -15 31 0 23 4 25 45 25 43 0 45 -1 45 -30 0 -16 -4 -30 -10
-30 -5 0 -10 -7 -10 -15 0 -11 12 -15 45 -15 33 0 45 4 45 15 0 8 -4 15 -10
15 -6 0 -10 33 -10 80 0 47 4 80 10 80 6 0 10 7 10 15 0 11 -12 15 -45 15 -33
0 -45 -4 -45 -15 0 -8 5 -15 10 -15 6 0 10 -13 10 -30 0 -29 -2 -30 -45 -30
-43 0 -45 1 -45 29 0 16 6 31 15 35 32 12 13 26 -35 26 -28 0 -50 -5 -50 -10z"/>
<path d="M1332 1663 c-5 -10 -19 -49 -32 -88 -12 -38 -26 -74 -31 -79 -19 -21
-9 -36 26 -36 33 0 36 2 33 28 -3 25 0 27 35 30 39 3 39 3 32 -27 -7 -31 -6
-31 34 -31 30 0 41 4 41 15 0 8 -4 15 -8 15 -5 0 -23 43 -41 95 -29 84 -36 95
-57 95 -13 0 -27 -8 -32 -17z m47 -90 c1 -7 -8 -13 -19 -13 -23 0 -23 0 -9 37
10 26 12 27 19 8 5 -11 9 -26 9 -32z"/>
<path d="M1480 1671 c0 -6 5 -13 10 -16 6 -3 10 -42 10 -86 0 -46 -4 -79 -10
-79 -5 0 -10 -7 -10 -15 0 -11 12 -15 45 -15 33 0 45 4 45 15 0 8 -4 15 -10
15 -5 0 -10 14 -10 30 0 25 4 30 23 30 29 0 47 -18 47 -45 0 -26 18 -45 42
-45 19 0 25 25 8 35 -5 3 -10 16 -10 29 0 12 -5 27 -12 34 -9 9 -9 15 0 24 18
18 14 63 -6 81 -14 13 -38 17 -90 17 -40 0 -72 -4 -72 -9z m128 -38 c14 -27 3
-43 -29 -43 -26 0 -29 4 -29 30 0 25 4 30 25 30 13 0 28 -8 33 -17z"/>
<path d="M1890 1665 c0 -8 5 -15 10 -15 6 0 10 -33 10 -80 0 -47 -4 -80 -10
-80 -5 0 -10 -7 -10 -15 0 -11 12 -15 45 -15 32 0 45 4 45 14 0 8 -7 16 -15
20 -8 3 -15 17 -15 31 0 23 4 25 45 25 43 0 45 -1 45 -30 0 -16 -4 -30 -10
-30 -5 0 -10 -7 -10 -15 0 -11 12 -15 45 -15 33 0 45 4 45 15 0 8 -4 15 -10
15 -6 0 -10 33 -10 80 0 47 4 80 10 80 6 0 10 7 10 15 0 11 -12 15 -45 15 -42
0 -58 -11 -35 -25 6 -3 10 -19 10 -36 0 -28 -2 -29 -45 -29 -43 0 -45 1 -45
29 0 16 6 31 15 35 30 11 14 26 -30 26 -33 0 -45 -4 -45 -15z"/>
<path d="M2130 1671 c0 -6 5 -13 10 -16 6 -3 10 -42 10 -86 0 -46 -4 -79 -10
-79 -5 0 -10 -7 -10 -15 0 -11 12 -15 45 -15 33 0 45 4 45 15 0 8 -4 15 -10
15 -6 0 -10 33 -10 80 0 47 4 80 10 80 6 0 10 7 10 15 0 11 -12 15 -45 15 -25
0 -45 -4 -45 -9z"/>
<path d="M2240 1665 c0 -8 5 -15 10 -15 6 0 10 -33 10 -80 0 -47 -4 -80 -10
-80 -5 0 -10 -7 -10 -15 0 -11 12 -15 45 -15 33 0 45 4 45 15 0 8 -4 15 -10
15 -6 0 -10 26 -10 58 l0 57 43 -72 c32 -56 47 -73 65 -73 21 0 22 3 22 94 0
74 3 95 15 100 32 12 13 26 -35 26 -48 0 -67 -14 -35 -26 11 -4 15 -21 15 -58
-1 -50 -1 -50 -18 -30 -9 12 -29 42 -44 68 -24 41 -31 46 -63 46 -24 0 -35 -5
-35 -15z"/>
<path d="M2480 1671 c0 -6 5 -13 10 -16 6 -3 10 -42 10 -86 0 -46 -4 -79 -10
-79 -5 0 -10 -7 -10 -15 0 -11 12 -15 45 -15 33 0 45 4 45 15 0 8 -4 15 -10
15 -6 0 -10 33 -10 80 0 47 4 80 10 80 6 0 10 7 10 15 0 11 -12 15 -45 15 -25
0 -45 -4 -45 -9z"/>
</g>
</svg>
